<svg width="43" height="42" viewBox="0 0 43 42" fill="none" xmlns="http://www.w3.org/2000/svg">
<path fill-rule="evenodd" clip-rule="evenodd" d="M18.4251 2.65625C18.4251 1.55168 19.3205 0.65625 20.4251 0.65625H22.4545C23.559 0.65625 24.4545 1.55168 24.4545 2.65625V4.43704C27.0067 4.87655 29.361 5.87541 31.3798 7.29919L32.7346 5.97746C33.5252 5.20611 34.8071 5.20611 35.5977 5.97746L36.998 7.34362C37.7887 8.11496 37.7887 9.36556 36.998 10.1369L35.5616 11.5383C36.9053 13.5068 37.8263 15.7736 38.1981 18.2151H40.4522C41.5568 18.2151 42.4522 19.1105 42.4522 20.2151V22.0974C42.4522 23.202 41.5568 24.0974 40.4522 24.0974H38.0133C37.5114 26.4008 36.5161 28.5262 35.1403 30.3632L36.998 32.1756C37.7886 32.947 37.7886 34.1976 36.998 34.9689L35.5977 36.3351C34.8071 37.1064 33.5252 37.1064 32.7346 36.3351L30.7734 34.4217C28.8951 35.6285 26.7552 36.4793 24.4545 36.8755V39.6562C24.4545 40.7608 23.559 41.6562 22.4545 41.6562H20.4251C19.3205 41.6562 18.4251 40.7608 18.4251 39.6562V36.8543C16.1405 36.4442 14.017 35.5853 12.1541 34.3749L10.145 36.335C9.35437 37.1063 8.07251 37.1063 7.28187 36.335L5.88156 34.9688C5.09093 34.1975 5.09093 32.9469 5.88156 32.1755L7.80894 30.2952C6.45937 28.4738 5.48227 26.3725 4.98661 24.0974H2.42725C1.32268 24.0974 0.427246 23.202 0.427246 22.0974V20.2151C0.427246 19.1105 1.32268 18.2151 2.42725 18.2151H4.80174C5.16911 15.8027 6.07265 13.561 7.39034 11.609L5.88154 10.137C5.0909 9.36564 5.0909 8.11504 5.88154 7.34369L7.28185 5.97753C8.07248 5.20618 9.35434 5.20619 10.145 5.97753L11.5503 7.34862C13.5529 5.92108 15.8898 4.91336 18.4251 4.45821V2.65625ZM21.5 28.8915C26.1619 28.8915 29.9412 25.2044 29.9412 20.6562C29.9412 16.108 26.1619 12.4209 21.5 12.4209C16.8381 12.4209 13.0588 16.108 13.0588 20.6562C13.0588 25.2044 16.8381 28.8915 21.5 28.8915Z" fill="white"/>
</svg>
