<svg width="34" height="41" viewBox="0 0 34 41" fill="none" xmlns="http://www.w3.org/2000/svg">
<path fill-rule="evenodd" clip-rule="evenodd" d="M26.4659 2.94538C26.7617 3.43025 26.2762 3.95337 25.7082 3.95337H8.65719C5.97976 3.95337 3.83077 6.0327 3.83077 8.62334V32.689C3.83077 33.2354 3.33372 33.7138 2.85545 33.4496C1.4029 32.6472 0.429688 31.1353 0.429688 29.3919V5.32623C0.429688 2.73558 2.57868 0.65625 5.25612 0.65625H22.3071C24.084 0.65625 25.6282 1.57207 26.4659 2.94538Z" fill="white"/>
<path d="M29.1094 40.6562H12.0584C9.38093 40.6562 7.23193 38.5768 7.23193 35.9862V11.9205C7.23193 9.32982 9.38093 7.25049 12.0584 7.25049H29.1094C31.7868 7.25049 33.9358 9.32982 33.9358 11.9205V35.9862C33.9358 38.5768 31.7516 40.6562 29.1094 40.6562Z" fill="white"/>
</svg>
