<svg width="35" height="41" viewBox="0 0 35 41" fill="none" xmlns="http://www.w3.org/2000/svg">
<path fill-rule="evenodd" clip-rule="evenodd" d="M23.6036 24.6258C26.4053 22.1101 28.1676 18.4599 28.1676 14.398C28.1676 6.80864 22.0152 0.65625 14.4258 0.65625C6.83647 0.65625 0.684082 6.80864 0.684082 14.398C0.684082 21.9874 6.83647 28.1398 14.4258 28.1398C16.6832 28.1398 18.8134 27.5955 20.6924 26.631C20.7482 26.7508 20.8183 26.8662 20.9028 26.975L30.4346 39.241C31.0421 40.0226 32.1681 40.1639 32.9498 39.5564C33.7314 38.949 33.8727 37.823 33.2653 37.0413L23.7334 24.7753C23.6924 24.7226 23.649 24.6727 23.6036 24.6258Z" fill="white"/>
</svg>
