<svg width="49" height="22" viewBox="0 0 49 22" fill="none" xmlns="http://www.w3.org/2000/svg">
<path d="M29.7535 3.32014C28.3557 1.50719 26.259 0.5 23.9126 0.5C21.5663 0.5 19.4696 1.50719 18.0218 3.32014C17.4727 3.97482 17.0733 4.73022 16.7239 5.58633C16.4743 6.19065 15.5757 6.19065 15.3261 5.58633C14.9766 4.73022 14.5273 3.97482 14.0281 3.32014C12.5803 1.50719 10.4836 0.5 8.13729 0.5C5.79095 0.5 3.69423 1.50719 2.24649 3.32014C0.74883 5.23381 0 7.80216 0 11.1259C0 18.7806 4.19345 21.5 8.13729 21.5C10.5335 21.5 12.5304 20.5935 13.9782 18.8309C14.5273 18.1763 14.9766 17.4209 15.3261 16.5647C15.5757 15.9604 16.4743 15.9604 16.7239 16.5647C18.1716 20.1403 21.117 21.5 23.9126 21.5C26.3089 21.5 28.3058 20.5935 29.7535 18.8309C31.2512 17.018 32 14.3993 32 11.1259C32 7.80216 31.2512 5.23381 29.7535 3.32014ZM23.9126 17.6727C20.1186 17.6727 19.5694 13.5432 19.5694 11.0755C19.5694 6.7446 21.1669 4.27698 23.9126 4.27698C26.6583 4.27698 28.2558 6.7446 28.2558 11.0755C28.2558 13.5432 27.7067 17.6727 23.9126 17.6727Z" fill="black"/>
<path d="M41.5 0.5C35.9785 0.5 34 6.19065 34 11.1259C34 18.7806 37.865 21.5 41.5 21.5C45.135 21.5 49 18.7806 49 11.1259C49 6.19065 47.0215 0.5 41.5 0.5Z" fill="#95C11F"/>
</svg>
